<svg width="21" height="21" viewBox="0 0 21 21" fill="none" xmlns="http://www.w3.org/2000/svg">
<g clip-path="url(#clip0_688_2754)">
<path d="M4.25 4.25H19.25L17.375 12.375H6.125M17.375 14.875H6.75L3.625 1.75H1.75" stroke="#A4A4A4" stroke-width="2" stroke-linecap="round" stroke-linejoin="round"/>
<path d="M16.125 18.625C16.8154 18.625 17.375 18.0654 17.375 17.375C17.375 16.6846 16.8154 16.125 16.125 16.125C15.4346 16.125 14.875 16.6846 14.875 17.375C14.875 18.0654 15.4346 18.625 16.125 18.625Z" stroke="#A4A4A4" stroke-width="2" stroke-linecap="round" stroke-linejoin="round"/>
<path d="M8 18.625C8.69036 18.625 9.25 18.0654 9.25 17.375C9.25 16.6846 8.69036 16.125 8 16.125C7.30964 16.125 6.75 16.6846 6.75 17.375C6.75 18.0654 7.30964 18.625 8 18.625Z" stroke="#A4A4A4" stroke-width="2" stroke-linecap="round" stroke-linejoin="round"/>
</g>
<defs>
<clipPath id="clip0_688_2754">
<rect width="20" height="20" fill="white" transform="translate(0.5 0.5)"/>
</clipPath>
</defs>
</svg>
