<svg width="15" height="15" viewBox="0 0 15 15" fill="none" xmlns="http://www.w3.org/2000/svg">
<path d="M5.83333 0H0.833333C0.61232 0 0.400358 0.0877973 0.244078 0.244078C0.0877973 0.400358 0 0.61232 0 0.833333V5.83333C0 6.05435 0.0877973 6.26631 0.244078 6.42259C0.400358 6.57887 0.61232 6.66667 0.833333 6.66667H5.83333C6.05435 6.66667 6.26631 6.57887 6.42259 6.42259C6.57887 6.26631 6.66667 6.05435 6.66667 5.83333V0.833333C6.66667 0.61232 6.57887 0.400358 6.42259 0.244078C6.26631 0.0877973 6.05435 0 5.83333 0ZM5 5H1.66667V1.66667H5V5ZM14.1667 8.33333H9.16667C8.94565 8.33333 8.73369 8.42113 8.57741 8.57741C8.42113 8.73369 8.33333 8.94565 8.33333 9.16667V14.1667C8.33333 14.3877 8.42113 14.5996 8.57741 14.7559C8.73369 14.9122 8.94565 15 9.16667 15H14.1667C14.3877 15 14.5996 14.9122 14.7559 14.7559C14.9122 14.5996 15 14.3877 15 14.1667V9.16667C15 8.94565 14.9122 8.73369 14.7559 8.57741C14.5996 8.42113 14.3877 8.33333 14.1667 8.33333ZM13.3333 13.3333H10V10H13.3333V13.3333ZM11.6667 0C9.82833 0 8.33333 1.495 8.33333 3.33333C8.33333 5.17167 9.82833 6.66667 11.6667 6.66667C13.505 6.66667 15 5.17167 15 3.33333C15 1.495 13.505 0 11.6667 0ZM11.6667 5C10.7475 5 10 4.2525 10 3.33333C10 2.41417 10.7475 1.66667 11.6667 1.66667C12.5858 1.66667 13.3333 2.41417 13.3333 3.33333C13.3333 4.2525 12.5858 5 11.6667 5ZM3.33333 8.33333C1.495 8.33333 0 9.82833 0 11.6667C0 13.505 1.495 15 3.33333 15C5.17167 15 6.66667 13.505 6.66667 11.6667C6.66667 9.82833 5.17167 8.33333 3.33333 8.33333ZM3.33333 13.3333C2.41417 13.3333 1.66667 12.5858 1.66667 11.6667C1.66667 10.7475 2.41417 10 3.33333 10C4.2525 10 5 10.7475 5 11.6667C5 12.5858 4.2525 13.3333 3.33333 13.3333Z" fill="#A4A4A4"/>
</svg>
