<svg width="24" height="24" viewBox="0 0 24 24" fill="none" xmlns="http://www.w3.org/2000/svg">
<rect width="24" height="24" rx="12" fill="#2A2A2A"/>
<g clip-path="url(#clip0_1278_2458)">
<path d="M12 19.7332C14.2091 19.7332 16 16.2709 16 11.9999C16 7.7289 14.2091 4.26657 12 4.26657C9.79086 4.26657 8 7.7289 8 11.9999C8 16.2709 9.79086 19.7332 12 19.7332Z" fill="white"/>
<path fill-rule="evenodd" clip-rule="evenodd" d="M11.9996 4.26657C11.8654 4.26672 11.7314 4.27966 11.5996 4.30524C13.6209 4.69324 15.1996 7.99004 15.1996 11.9999C15.1996 16.0098 13.6209 19.3066 11.5996 19.6946C11.7314 19.7201 11.8654 19.7331 11.9996 19.7332C14.2087 19.7332 15.9996 16.2708 15.9996 11.9999C15.9996 7.72897 14.2087 4.26657 11.9996 4.26657Z" fill="#CAD9FC"/>
<path fill-rule="evenodd" clip-rule="evenodd" d="M18.9757 14.9972C19.0717 14.1066 18.701 13.0559 17.9597 11.9999C17.3567 11.1668 16.6405 10.4218 15.8317 9.78657C15.2545 9.32268 14.642 8.90452 13.9997 8.5359C13.3594 8.16457 12.6917 7.84274 12.0024 7.57323H11.9997C11.0456 7.19178 10.0431 6.94497 9.02104 6.8399C7.63704 6.71723 6.47171 6.9599 5.75704 7.58657L5.02371 9.00257C4.92771 9.89323 5.29837 10.9439 6.03971 11.9999C6.64268 12.833 7.35891 13.578 8.16771 14.2132C8.74493 14.6771 9.35745 15.0953 9.99971 15.4639C10.64 15.8352 11.3077 16.1571 11.997 16.4266H11.9997C12.9538 16.808 13.9563 17.0548 14.9784 17.1599C16.3624 17.2826 17.5277 17.0399 18.2424 16.4132L18.9757 14.9972Z" fill="white"/>
<path fill-rule="evenodd" clip-rule="evenodd" d="M17.9602 11.9999C17.3572 11.1668 16.641 10.4218 15.8322 9.78657C15.2549 9.32268 14.6424 8.90452 14.0002 8.5359C13.3599 8.16457 12.6922 7.84274 12.0028 7.57323H12.0002C11.0461 7.19178 10.0436 6.94497 9.02149 6.8399C8.66303 6.80745 8.30262 6.80219 7.94336 6.82417C8.03589 6.82897 8.12683 6.83163 8.22149 6.8399C9.2436 6.94497 10.2461 7.19178 11.2002 7.57323H11.2028C11.8922 7.84274 12.5599 8.16457 13.2002 8.5359C13.8424 8.90452 14.4549 9.32268 15.0322 9.78657C15.841 10.4218 16.5572 11.1668 17.1602 11.9999C17.9015 13.0559 18.2722 14.1066 18.1762 14.9972L17.4428 16.4132C16.9234 16.8687 16.1628 17.1188 15.2562 17.1756C16.5167 17.2434 17.5762 16.997 18.2428 16.4132L18.9762 14.9972C19.0722 14.1066 18.7015 13.0559 17.9602 11.9999Z" fill="#CAD9FC"/>
<path fill-rule="evenodd" clip-rule="evenodd" d="M18.9757 9.00257C19.0717 9.89323 18.701 10.9439 17.9597 11.9999C17.3567 12.833 16.6405 13.578 15.8317 14.2132C15.2545 14.6771 14.642 15.0953 13.9997 15.4639C13.3585 15.8353 12.6899 16.1571 11.9997 16.4266H11.997C11.0438 16.8077 10.0422 17.0545 9.02104 17.1599C7.63704 17.2826 6.47171 17.0399 5.75704 16.4132L5.02371 14.9972C4.92771 14.1066 5.29837 13.0559 6.03971 11.9999C6.64268 11.1668 7.35891 10.4218 8.16771 9.78657C8.74493 9.32268 9.35745 8.90452 9.99971 8.5359C10.6409 8.16454 11.3095 7.84271 11.9997 7.57323H12.0024C12.9556 7.1921 13.9572 6.9453 14.9784 6.8399C16.3624 6.71723 17.5277 6.9599 18.2424 7.58657L18.9757 9.00257Z" fill="white"/>
<path fill-rule="evenodd" clip-rule="evenodd" d="M18.9762 9.0026L18.2428 7.5866C17.5762 7.00287 16.5172 6.75647 15.2562 6.8242C16.1628 6.881 16.9226 7.13114 17.4428 7.5866L18.1762 9.0026C18.2722 9.89327 17.9015 10.9439 17.1602 11.9999C16.5572 12.8331 15.841 13.578 15.0322 14.2133C14.4549 14.6772 13.8424 15.0953 13.2002 15.4639C12.559 15.8353 11.8904 16.1571 11.2002 16.4266H11.1975C10.2443 16.8077 9.24268 17.0545 8.22149 17.1599C8.12683 17.1682 8.03483 17.1709 7.94336 17.1757C8.30262 17.1976 8.66303 17.1924 9.02149 17.1599C10.0427 17.0545 11.0443 16.8077 11.9975 16.4266H12.0002C12.6904 16.1571 13.359 15.8353 14.0002 15.4639C14.6424 15.0953 15.2549 14.6772 15.8322 14.2133C16.641 13.578 17.3572 12.8331 17.9602 11.9999C18.7015 10.9439 19.0722 9.89327 18.9762 9.0026Z" fill="#CAD9FC"/>
<path d="M5.3332 9.0666C5.77503 9.0666 6.1332 8.70843 6.1332 8.2666C6.1332 7.82477 5.77503 7.4666 5.3332 7.4666C4.89138 7.4666 4.5332 7.82477 4.5332 8.2666C4.5332 8.70843 4.89138 9.0666 5.3332 9.0666Z" fill="white"/>
<path d="M18.6672 16.5332C19.109 16.5332 19.4672 16.175 19.4672 15.7332C19.4672 15.2914 19.109 14.9332 18.6672 14.9332C18.2254 14.9332 17.8672 15.2914 17.8672 15.7332C17.8672 16.175 18.2254 16.5332 18.6672 16.5332Z" fill="white"/>
<path d="M5.3332 16.5332C5.77503 16.5332 6.1332 16.175 6.1332 15.7332C6.1332 15.2914 5.77503 14.9332 5.3332 14.9332C4.89138 14.9332 4.5332 15.2914 4.5332 15.7332C4.5332 16.175 4.89138 16.5332 5.3332 16.5332Z" fill="white"/>
<path d="M18.6672 9.0666C19.109 9.0666 19.4672 8.70843 19.4672 8.2666C19.4672 7.82477 19.109 7.4666 18.6672 7.4666C18.2254 7.4666 17.8672 7.82477 17.8672 8.2666C17.8672 8.70843 18.2254 9.0666 18.6672 9.0666Z" fill="white"/>
<path fill-rule="evenodd" clip-rule="evenodd" d="M16 11.9999C16 12.4852 15.976 12.9599 15.9333 13.4212C15.9067 13.6906 15.8747 13.9546 15.832 14.2132C15.5413 14.4479 15.2347 14.6746 14.912 14.8932C14.6213 15.0906 14.3173 15.2826 14 15.4639C13.3588 15.8353 12.6902 16.1571 12 16.4266H11.9973C11.8667 16.3759 11.7333 16.3226 11.6 16.2639C11.0509 16.03 10.5166 15.7629 10 15.4639C9.35774 15.0953 8.74522 14.6771 8.168 14.2132C7.944 12.7462 7.944 11.2536 8.168 9.78658C8.74522 9.32269 9.35774 8.90453 10 8.53591C10.5175 8.23693 11.0527 7.96976 11.6027 7.73591C11.736 7.67724 11.8693 7.62391 12 7.57324H12.0027C12.692 7.84275 13.3597 8.16458 14 8.53591C14.3173 8.71724 14.6213 8.90924 14.912 9.10658C15.2347 9.32524 15.5413 9.55191 15.832 9.78658C15.8747 10.0452 15.9067 10.3092 15.9333 10.5786C15.976 11.0399 16 11.5146 16 11.9999Z" fill="white"/>
<path fill-rule="evenodd" clip-rule="evenodd" d="M15.9333 10.5786C15.9066 10.3092 15.8746 10.0452 15.832 9.78658C15.5413 9.55191 15.2346 9.32524 14.912 9.10658C14.6213 8.90924 14.3173 8.71724 14 8.53591C13.3597 8.16458 12.692 7.84275 12.0026 7.57324H12C11.8693 7.62391 11.736 7.67724 11.6026 7.73591H11.6005C12.1494 7.97024 12.6837 8.23739 13.2005 8.53591C13.5178 8.71724 13.8218 8.90924 14.1125 9.10658C14.4352 9.32524 14.7418 9.55191 15.0325 9.78658C15.0752 10.0452 15.1072 10.3092 15.1338 10.5786C15.1765 11.0399 15.2005 11.5146 15.2005 11.9999C15.2005 12.4852 15.1765 12.9599 15.1338 13.4212C15.1072 13.6906 15.0752 13.9546 15.0325 14.2132C14.7418 14.4479 14.4352 14.6746 14.1125 14.8932C13.8218 15.0906 13.5178 15.2826 13.2005 15.4639C12.6832 15.7626 12.1482 16.0298 11.5986 16.2639H11.6005C11.7338 16.3226 11.8672 16.3759 11.9978 16.4266H12C12.6902 16.1571 13.3588 15.8353 14 15.4639C14.3173 15.2826 14.6213 15.0906 14.912 14.8932C15.2346 14.6746 15.5413 14.4479 15.832 14.2132C15.8746 13.9546 15.9066 13.6906 15.9333 13.4212C15.976 12.9599 16 12.4852 16 11.9999C16 11.5146 15.976 11.0399 15.9333 10.5786Z" fill="#CAD9FC"/>
<path fill-rule="evenodd" clip-rule="evenodd" d="M16.0095 6.82662C15.9295 6.82236 15.8495 6.81756 15.7666 6.81622C15.7706 6.82449 15.7749 6.83222 15.7786 6.84049C15.857 6.83302 15.933 6.83009 16.0095 6.82662Z" fill="white"/>
<path fill-rule="evenodd" clip-rule="evenodd" d="M15.7786 17.1599C15.7749 17.1682 15.7706 17.1759 15.7666 17.1842C15.8493 17.1829 15.9295 17.1781 16.0098 17.1738C15.933 17.1698 15.8573 17.1669 15.7786 17.1599Z" fill="white"/>
<path fill-rule="evenodd" clip-rule="evenodd" d="M19.043 7.58659L19.0446 7.58979C19.0518 7.58525 19.0598 7.58179 19.067 7.57752C19.0324 7.557 18.9963 7.53917 18.959 7.52419C18.987 7.54659 19.0169 7.56392 19.043 7.58659Z" fill="white"/>
<path fill-rule="evenodd" clip-rule="evenodd" d="M19.043 16.4133C19.0163 16.4359 18.9862 16.4546 18.959 16.4765C18.9963 16.4615 19.0324 16.4437 19.067 16.4231C19.0598 16.4189 19.0518 16.4154 19.0446 16.4109L19.043 16.4133Z" fill="white"/>
<path fill-rule="evenodd" clip-rule="evenodd" d="M4.5335 15.7333C4.5335 16.1751 4.89167 16.5333 5.3335 16.5333C5.47433 16.5325 5.61241 16.4943 5.7335 16.4223C5.47033 16.2711 5.31587 15.9836 5.33512 15.6807C5.35436 15.3778 5.54397 15.1121 5.82417 14.9954C5.7287 14.1066 6.09937 13.0551 6.84017 11.9999C6.09937 10.9445 5.7287 9.89461 5.82417 9.00448C5.54397 8.8878 5.35436 8.62211 5.33512 8.31921C5.31587 8.0163 5.47033 7.72875 5.7335 7.57755C5.61241 7.50564 5.47433 7.46735 5.3335 7.46661C4.9524 7.46651 4.62414 7.73525 4.54899 8.10886C4.47384 8.48247 4.67267 8.85723 5.02417 9.00448C4.9287 9.89461 5.29937 10.9445 6.04017 11.9999C5.29937 13.0551 4.9287 14.1066 5.02417 14.9954C4.72689 15.1201 4.53346 15.4109 4.5335 15.7333Z" fill="white"/>
<path fill-rule="evenodd" clip-rule="evenodd" d="M7.69279 6.57541L7.74612 7.10608C7.08649 7.14343 6.45392 7.38102 5.93279 7.78714L5.58105 7.38661C6.18508 6.90597 6.92232 6.62276 7.69279 6.57541Z" fill="white"/>
<path fill-rule="evenodd" clip-rule="evenodd" d="M6.68207 7.32957C6.53479 7.3303 6.4148 7.21151 6.41407 7.06423C6.41333 6.91696 6.53212 6.79697 6.6794 6.79623H6.68207C6.82934 6.79623 6.94873 6.91562 6.94873 7.0629C6.94873 7.21018 6.82934 7.32957 6.68207 7.32957Z" fill="#1D4ED8"/>
<path d="M9.23043 13.8461C9.29571 13.8733 9.36914 13.8735 9.43455 13.8466C9.49996 13.8197 9.55201 13.7679 9.57923 13.7026L9.95523 12.7999H11.3776L11.7536 13.7026C11.8103 13.8385 11.9665 13.9028 12.1024 13.8461C12.2384 13.7894 12.3026 13.6332 12.2459 13.4973L10.9126 10.2973C10.8711 10.1979 10.7741 10.1332 10.6664 10.1332C10.5588 10.1332 10.4617 10.1979 10.4203 10.2973L9.08697 13.4973C9.05973 13.5625 9.05955 13.636 9.08645 13.7014C9.11336 13.7668 9.16515 13.8188 9.23043 13.8461ZM10.6664 11.0933L11.1552 12.2666H10.1776L10.6664 11.0933Z" fill="#1D4ED8"/>
<path fill-rule="evenodd" clip-rule="evenodd" d="M12.7999 13.3333C12.6526 13.3333 12.5332 13.4527 12.5332 13.6C12.5332 13.7472 12.6526 13.8666 12.7999 13.8666H14.3999C14.5471 13.8666 14.6665 13.7472 14.6665 13.6C14.6665 13.4527 14.5471 13.3333 14.3999 13.3333H13.8665V10.6666H14.3999C14.5471 10.6666 14.6665 10.5472 14.6665 10.4C14.6665 10.2527 14.5471 10.1333 14.3999 10.1333H12.7999C12.6526 10.1333 12.5332 10.2527 12.5332 10.4C12.5332 10.5472 12.6526 10.6666 12.7999 10.6666H13.3332V13.3333H12.7999Z" fill="#1D4ED8"/>
<path d="M4.26665 15.7333C4.26665 16.3224 4.74422 16.7999 5.33332 16.7999C5.46693 16.7994 5.59924 16.7736 5.72319 16.7237C6.35359 17.2063 7.24319 17.4581 8.33652 17.4581C8.50132 17.4581 8.67252 17.4503 8.84612 17.4391C9.62052 19.0215 10.7379 19.9999 12 19.9999C13.2621 19.9999 14.3795 19.0215 15.1541 17.4399C15.328 17.4511 15.4989 17.4589 15.6637 17.4589C16.7571 17.4589 17.6467 17.2071 18.2771 16.7245C18.401 16.7741 18.5332 16.7997 18.6667 16.7999C19.1375 16.7986 19.5517 16.4887 19.686 16.0375C19.8202 15.5862 19.6428 15.1003 19.2493 14.8418C19.2867 13.9831 18.9547 13.0087 18.2789 11.9999C18.9547 10.9914 19.2867 10.017 19.2493 9.15807C19.7103 8.86056 19.8696 8.26132 19.6172 7.77417C19.3647 7.28701 18.7833 7.07162 18.2744 7.27674C17.5499 6.72234 16.48 6.47674 15.1544 6.56314C14.3805 4.97941 13.2627 3.99994 12 3.99994C10.7373 3.99994 9.62025 4.97861 8.84585 6.56127C8.46196 6.53374 8.07643 6.53847 7.69332 6.57541C7.62114 6.58111 7.55458 6.61654 7.50953 6.67322C7.46448 6.7299 7.44499 6.80274 7.45572 6.87434C7.4771 7.01605 7.6043 7.11718 7.74719 7.10607C8.03471 7.07772 8.3239 7.07005 8.61252 7.08314C8.28166 7.90924 8.04722 8.77076 7.91385 9.65061C7.2242 10.206 6.6 10.838 6.05332 11.5346C5.60293 10.8811 5.33505 10.1193 5.27732 9.32767C5.29625 9.32767 5.31412 9.33327 5.33332 9.33327C5.8654 9.33543 6.31837 8.94661 6.39687 8.42034C6.47537 7.89408 6.15559 7.38999 5.64603 7.23677C5.13648 7.08356 4.59172 7.32769 4.36696 7.80997C4.1422 8.29226 4.30562 8.86642 4.75065 9.15807C4.71305 10.0165 5.04532 10.9909 5.72105 11.9999C5.04532 13.0087 4.71305 13.9831 4.75065 14.8418C4.44905 15.0381 4.26699 15.3734 4.26665 15.7333ZM5.33332 7.73327C5.62787 7.73327 5.86665 7.97205 5.86665 8.26661C5.86665 8.56116 5.62787 8.79994 5.33332 8.79994C5.03877 8.79994 4.79999 8.56116 4.79999 8.26661C4.79999 7.97205 5.03877 7.73327 5.33332 7.73327ZM4.79999 15.7333C4.79999 15.4387 5.03877 15.1999 5.33332 15.1999C5.62787 15.1999 5.86665 15.4387 5.86665 15.7333C5.86665 16.0278 5.62787 16.2666 5.33332 16.2666C5.19187 16.2666 5.05621 16.2104 4.9562 16.1104C4.85618 16.0104 4.79999 15.8747 4.79999 15.7333ZM9.17572 7.12527C9.88562 7.21029 10.585 7.36727 11.2632 7.59381C10.7859 7.80683 10.3197 8.04412 9.86665 8.30474C9.41197 8.56715 8.97152 8.85351 8.54719 9.16261C8.687 8.46392 8.8976 7.78129 9.17572 7.12527ZM8.41305 9.93407C8.95689 9.5031 9.53189 9.11297 10.1333 8.76687C10.7333 8.41987 11.3577 8.11686 12.0016 7.86021C12.6449 8.11694 13.2687 8.41996 13.8683 8.76687C14.4696 9.11295 15.0445 9.50309 15.5883 9.93407C15.6858 10.6184 15.7343 11.3087 15.7333 11.9999C15.7338 12.6912 15.6849 13.3816 15.5869 14.0658C15.0431 14.4968 14.4681 14.8869 13.8667 15.233C13.2671 15.5798 12.6433 15.8826 12 16.1391C11.3567 15.8825 10.7328 15.5794 10.1333 15.2325C9.53196 14.8864 8.95706 14.4963 8.41332 14.0653C8.21812 12.6949 8.21812 11.3039 8.41332 9.93354L8.41305 9.93407ZM15.4531 9.16261C15.0287 8.85347 14.5881 8.56711 14.1333 8.30474C13.6809 8.04442 13.2156 7.80714 12.7392 7.59381C13.4166 7.36737 14.1153 7.21039 14.8245 7.12527C15.1025 7.78131 15.3129 8.46394 15.4525 9.16261H15.4531ZM14.8243 16.8746C14.1143 16.7896 13.4149 16.6326 12.7368 16.4061C13.2141 16.193 13.6802 15.9558 14.1333 15.6951C14.588 15.4327 15.0284 15.1464 15.4528 14.8373C15.313 15.536 15.1024 16.2186 14.8243 16.8746ZM16.188 10.4381C16.7194 10.909 17.202 11.4323 17.6285 11.9999C17.2022 12.5676 16.7197 13.0908 16.1885 13.5618C16.2409 13.0428 16.267 12.5215 16.2667 11.9999C16.2668 11.4783 16.2405 10.957 16.188 10.4381ZM9.86665 15.6951C10.3191 15.9555 10.7844 16.1927 11.2608 16.4061C10.5833 16.6325 9.88464 16.7895 9.17545 16.8746C8.89742 16.2186 8.68692 15.5359 8.54719 14.8373C8.9715 15.1464 9.41195 15.4328 9.86665 15.6951ZM12 19.4666C10.9984 19.4666 10.0883 18.6722 9.41705 17.3837C10.3008 17.2584 11.1674 17.0326 12 16.7106C12.8329 17.0327 13.6998 17.2585 14.584 17.3837C13.9115 18.6722 13.0016 19.4666 12 19.4666ZM18.6667 16.2666C18.3721 16.2666 18.1333 16.0278 18.1333 15.7333C18.1333 15.4387 18.3721 15.1999 18.6667 15.1999C18.9612 15.1999 19.2 15.4387 19.2 15.7333C19.2 16.0278 18.9612 16.2666 18.6667 16.2666ZM18.7227 14.6722C18.7037 14.6722 18.6859 14.6666 18.6667 14.6666C18.0775 14.6666 17.6 15.1442 17.6 15.7333C17.601 15.9717 17.6827 16.2029 17.8317 16.389C17.2509 16.7722 16.4032 16.9543 15.3877 16.9162C15.7183 16.0902 15.9527 15.2289 16.0861 14.3493C16.7758 13.7939 17.4 13.1617 17.9467 12.465C18.3969 13.1187 18.6648 13.8806 18.7227 14.6722ZM19.2 8.26661C19.2 8.56116 18.9612 8.79994 18.6667 8.79994C18.3721 8.79994 18.1333 8.56116 18.1333 8.26661C18.1333 7.97205 18.3721 7.73327 18.6667 7.73327C18.9612 7.73327 19.2 7.97205 19.2 8.26661ZM17.8317 7.61087C17.6827 7.79702 17.601 8.02814 17.6 8.26661C17.6 8.85571 18.0775 9.33327 18.6667 9.33327C18.6859 9.33327 18.7037 9.32874 18.7227 9.32767C18.6648 10.1193 18.397 10.8812 17.9467 11.5349C17.4 10.8382 16.7757 10.206 16.0859 9.65061C15.9522 8.77093 15.7176 7.90959 15.3867 7.08367C16.4029 7.04527 17.2512 7.22661 17.8317 7.61087ZM12 4.53327C13.0016 4.53327 13.9117 5.32767 14.5829 6.61621C13.6996 6.7416 12.8334 6.96742 12.0013 7.28927C11.1684 6.96726 10.3015 6.74135 9.41732 6.61594C10.0885 5.32767 10.9984 4.53327 12 4.53327ZM7.81332 10.4381C7.70843 11.4767 7.70843 12.5232 7.81332 13.5618C7.28131 13.0911 6.79823 12.5678 6.37145 11.9999C6.79838 11.4322 7.28144 10.9089 7.81332 10.4381ZM6.05332 12.4647C6.60026 13.1613 7.22462 13.7933 7.91439 14.3487C8.04792 15.2287 8.28245 16.0903 8.61332 16.9165C7.59839 16.9549 6.75012 16.7722 6.16932 16.389C6.31799 16.2027 6.39928 15.9716 6.39999 15.7333C6.39999 15.1442 5.92242 14.6666 5.33332 14.6666C5.31412 14.6666 5.29625 14.6714 5.27732 14.6722C5.33514 13.8806 5.60301 13.1188 6.05332 12.4653V12.4647Z" fill="#1D4ED8"/>
</g>
<defs>
<clipPath id="clip0_1278_2458">
<rect width="16" height="16" fill="white" transform="translate(4 3.99997)"/>
</clipPath>
</defs>
</svg>
