<svg width="12" height="13" viewBox="0 0 12 13" fill="none" xmlns="http://www.w3.org/2000/svg">
<path d="M2.5 5.91666C2.5 4.26699 2.5 3.44157 3.01275 2.92941C3.52492 2.41666 4.35033 2.41666 6 2.41666H7.75C9.39967 2.41666 10.2251 2.41666 10.7372 2.92941C11.25 3.44157 11.25 4.26699 11.25 5.91666V8.83332C11.25 10.483 11.25 11.3084 10.7372 11.8206C10.2251 12.3333 9.39967 12.3333 7.75 12.3333H6C4.35033 12.3333 3.52492 12.3333 3.01275 11.8206C2.5 11.3084 2.5 10.483 2.5 8.83332V5.91666Z" stroke="#2A2A2A" stroke-opacity="0.7"/>
<path opacity="0.5" d="M2.5 10.5833C2.03587 10.5833 1.59075 10.3989 1.26256 10.0708C0.934375 9.74257 0.75 9.29745 0.75 8.83332V5.33332C0.75 3.13357 0.75 2.03341 1.43367 1.35032C2.11733 0.66724 3.21692 0.666656 5.41667 0.666656H7.75C8.21413 0.666656 8.65925 0.851031 8.98744 1.17922C9.31563 1.50741 9.5 1.95253 9.5 2.41666" stroke="#2A2A2A" stroke-opacity="0.7"/>
</svg>
