<svg width="40" height="41" viewBox="0 0 40 41" fill="none" xmlns="http://www.w3.org/2000/svg">
<circle cx="19.6613" cy="20.4992" r="19.5538" fill="white"/>
<path d="M20.3155 12.2608C20.1648 12.1985 19.9989 12.1823 19.839 12.2142C19.679 12.2461 19.5321 12.3247 19.4168 12.4401L14.7418 17.1151C14.5961 17.2715 14.5167 17.4783 14.5205 17.6921C14.5243 17.9058 14.6109 18.1097 14.762 18.2609C14.9132 18.412 15.1171 18.4986 15.3308 18.5024C15.5446 18.5062 15.7514 18.4268 15.9078 18.2811L19.1748 15.0141V23.4731C19.1748 23.6919 19.2617 23.9017 19.4164 24.0565C19.5712 24.2112 19.781 24.2981 19.9998 24.2981C20.2186 24.2981 20.4284 24.2112 20.5832 24.0565C20.7379 23.9017 20.8248 23.6919 20.8248 23.4731V15.0141L24.0918 18.2811C24.1673 18.3622 24.2584 18.4272 24.3596 18.4723C24.4608 18.5173 24.5701 18.5416 24.6808 18.5435C24.7916 18.5455 24.9016 18.5251 25.0044 18.4836C25.1071 18.4421 25.2004 18.3804 25.2787 18.302C25.3571 18.2237 25.4188 18.1304 25.4603 18.0277C25.5018 17.9249 25.5222 17.8149 25.5203 17.7041C25.5183 17.5933 25.4941 17.4841 25.449 17.3829C25.4039 17.2817 25.3389 17.1906 25.2578 17.1151L20.5828 12.4401C20.5055 12.3644 20.4149 12.3036 20.3155 12.2608ZM13.1248 19.8981C13.3436 19.8981 13.5535 19.985 13.7082 20.1397C13.8629 20.2945 13.9498 20.5043 13.9498 20.7231V25.1231C13.9498 26.1857 14.8122 27.0481 15.8748 27.0481H24.1248C24.6353 27.0481 25.125 26.8453 25.486 26.4843C25.847 26.1233 26.0498 25.6336 26.0498 25.1231V20.7231C26.0498 20.5043 26.1367 20.2945 26.2914 20.1397C26.4462 19.985 26.656 19.8981 26.8748 19.8981C27.0936 19.8981 27.3035 19.985 27.4582 20.1397C27.6129 20.2945 27.6998 20.5043 27.6998 20.7231V25.1231C27.6998 26.0712 27.3232 26.9806 26.6527 27.651C25.9823 28.3214 25.073 28.6981 24.1248 28.6981H15.8748C14.9267 28.6981 14.0173 28.3214 13.3469 27.651C12.6765 26.9806 12.2998 26.0712 12.2998 25.1231V20.7231C12.2998 20.5043 12.3867 20.2945 12.5414 20.1397C12.6962 19.985 12.906 19.8981 13.1248 19.8981Z" fill="#1D4ED8"/>
</svg>
