<svg width="22" height="22" viewBox="0 0 22 22" fill="none" xmlns="http://www.w3.org/2000/svg">
<g clip-path="url(#clip0_431_925)">
<path d="M7.66413 0.723606C5.46598 1.48616 3.57031 2.93352 2.25555 4.85308C0.940785 6.77264 0.276236 9.06323 0.359511 11.3884C0.442786 13.7136 1.2695 15.9507 2.71821 17.7713C4.16693 19.5919 6.16128 20.8999 8.40834 21.5033C10.2301 21.9734 12.1387 21.994 13.9702 21.5634C15.6294 21.1908 17.1633 20.3936 18.4218 19.25C19.7316 18.0234 20.6823 16.463 21.1718 14.7366C21.7038 12.8591 21.7984 10.8847 21.4485 8.96501H11.2185V13.2086H17.143C17.0246 13.8854 16.7709 14.5314 16.397 15.1079C16.0231 15.6844 15.5368 16.1795 14.9671 16.5636C14.2436 17.0422 13.4281 17.3642 12.5729 17.5089C11.7151 17.6684 10.8353 17.6684 9.97756 17.5089C9.1082 17.3292 8.28579 16.9704 7.56272 16.4553C6.4011 15.6331 5.52888 14.4649 5.07053 13.1175C4.60443 11.7449 4.60443 10.2568 5.07053 8.88423C5.3968 7.9221 5.93615 7.04609 6.64834 6.32157C7.46336 5.47723 8.4952 4.87369 9.63064 4.57717C10.7661 4.28065 11.9613 4.30261 13.0851 4.64064C13.9629 4.91012 14.7657 5.38097 15.4294 6.01564C16.0975 5.35105 16.7643 4.68475 17.4301 4.01673C17.7738 3.65751 18.1485 3.31548 18.4871 2.94767C17.474 2.00489 16.2848 1.2713 14.9877 0.788918C12.6256 -0.0687554 10.0411 -0.0918046 7.66413 0.723606Z" fill="white"/>
<path d="M7.66414 0.723464C10.0409 -0.0925001 12.6255 -0.0700577 14.9877 0.787058C16.2851 1.27271 17.4737 2.00984 18.4854 2.95612C18.1416 3.32393 17.779 3.66768 17.4284 4.02518C16.7615 4.69091 16.0952 5.35435 15.4295 6.0155C14.7658 5.38083 13.963 4.90998 13.0851 4.6405C11.9617 4.30128 10.7665 4.27806 9.63077 4.57337C8.49502 4.86867 7.46255 5.4711 6.64664 6.31456C5.93445 7.03907 5.39509 7.91509 5.06883 8.87721L1.50586 6.11862C2.78119 3.58959 4.98933 1.65507 7.66414 0.723464Z" fill="#E33629"/>
<path d="M0.560776 8.85147C0.752282 7.90236 1.07022 6.98323 1.50609 6.11865L5.06906 8.88412C4.60296 10.2567 4.60296 11.7448 5.06906 13.1174C3.88197 14.0341 2.69432 14.9553 1.50609 15.8812C0.414942 13.7092 0.0821606 11.2345 0.560776 8.85147Z" fill="#F8BD00"/>
<path d="M11.2185 8.96338H21.4485C21.7985 10.8831 21.7038 12.8575 21.1718 14.7349C20.6824 16.4614 19.7316 18.0218 18.4218 19.2484C17.272 18.3512 16.117 17.4609 14.9671 16.5637C15.5372 16.1792 16.0238 15.6835 16.3977 15.1064C16.7716 14.5293 17.0251 13.8827 17.1431 13.2053H11.2185C11.2168 11.7924 11.2185 10.3779 11.2185 8.96338Z" fill="#587DBD"/>
<path d="M1.50391 15.8814C2.69214 14.9648 3.87979 14.0435 5.06687 13.1177C5.52614 14.4655 6.3996 15.6337 7.5625 16.4555C8.28783 16.9681 9.11201 17.324 9.9825 17.5005C10.8403 17.66 11.7201 17.66 12.5778 17.5005C13.4331 17.3557 14.2486 17.0337 14.972 16.5552C16.1219 17.4524 17.2769 18.3427 18.4267 19.2399C17.1684 20.3841 15.6345 21.1818 13.9752 21.555C12.1437 21.9856 10.235 21.9649 8.41328 21.4949C6.97246 21.1102 5.62663 20.432 4.46016 19.5028C3.22551 18.5226 2.21711 17.2873 1.50391 15.8814Z" fill="#319F43"/>
</g>
<defs>
<clipPath id="clip0_431_925">
<rect width="22" height="22" fill="white"/>
</clipPath>
</defs>
</svg>
