<svg width="19" height="15" viewBox="0 0 19 15" fill="none" xmlns="http://www.w3.org/2000/svg">
<path d="M16.6956 0.0385742H2.14239C1.14186 0.0385742 0.332338 0.857192 0.332338 1.85773L0.323242 12.7726C0.323242 13.7732 1.14186 14.5918 2.14239 14.5918H16.6956C17.6961 14.5918 18.5148 13.7732 18.5148 12.7726V1.85773C18.5148 0.857192 17.6961 0.0385742 16.6956 0.0385742ZM16.3318 3.90427L9.90107 7.92459C9.61001 8.10651 9.22799 8.10651 8.93692 7.92459L2.50622 3.90427C2.41502 3.85307 2.33515 3.7839 2.27145 3.70094C2.20775 3.61798 2.16155 3.52296 2.13564 3.42162C2.10973 3.32029 2.10465 3.21475 2.12071 3.1114C2.13676 3.00805 2.17362 2.90902 2.22906 2.82033C2.28449 2.73163 2.35735 2.65511 2.44321 2.59539C2.52908 2.53566 2.62617 2.49398 2.72861 2.47287C2.83105 2.45176 2.93671 2.45165 3.03919 2.47255C3.14168 2.49345 3.23885 2.53493 3.32484 2.59448L9.419 6.4056L15.5132 2.59448C15.5991 2.53493 15.6963 2.49345 15.7988 2.47255C15.9013 2.45165 16.0069 2.45176 16.1094 2.47287C16.2118 2.49398 16.3089 2.53566 16.3948 2.59539C16.4806 2.65511 16.5535 2.73163 16.6089 2.82033C16.6644 2.90902 16.7012 3.00805 16.7173 3.1114C16.7333 3.21475 16.7283 3.32029 16.7024 3.42162C16.6764 3.52296 16.6302 3.61798 16.5665 3.70094C16.5028 3.7839 16.423 3.85307 16.3318 3.90427Z" fill="#6B7280"/>
</svg>
