<svg width="40" height="41" viewBox="0 0 40 41" fill="none" xmlns="http://www.w3.org/2000/svg">
<circle cx="19.5538" cy="20.4992" r="19.5538" fill="white"/>
<path fill-rule="evenodd" clip-rule="evenodd" d="M11.6329 20.1478C10.6493 17.2165 11.7988 13.8662 15.0227 12.8748C16.7185 12.3524 18.5904 12.6604 20.0002 13.6728C21.334 12.6884 23.2745 12.3559 24.9685 12.8748C28.1925 13.8662 29.3493 17.2165 28.3666 20.1478C26.8358 24.794 20.0002 28.3728 20.0002 28.3728C20.0002 28.3728 13.215 24.8483 11.6329 20.1478Z" fill="#FF0000"/>
<g opacity="0.4">
<path fill-rule="evenodd" clip-rule="evenodd" d="M23.667 15.8618C24.6478 16.1646 25.3408 17.0002 25.4242 17.9811L23.667 15.8618Z" fill="#FF0000"/>
<path d="M23.667 15.8618C24.6478 16.1646 25.3408 17.0002 25.4242 17.9811" stroke="#FF0000" stroke-width="0.977692" stroke-linecap="round" stroke-linejoin="round"/>
</g>
</svg>
