<svg width="17" height="15" viewBox="0 0 17 15" fill="none" xmlns="http://www.w3.org/2000/svg">
<path d="M3.04202 0.5H9.95802C10.424 0.5 10.81 0.5 11.109 0.528C11.406 0.556 11.72 0.618 11.967 0.822C12.305 1.099 12.497 1.515 12.5 1.951C12.502 2.267 12.36 2.551 12.199 2.809C12.036 3.069 11.799 3.382 11.509 3.763L8.91902 7.177C8.67302 7.501 8.59202 7.611 8.53602 7.728C8.48102 7.84212 8.4407 7.96275 8.41602 8.087C8.39002 8.217 8.38802 8.357 8.38802 8.769V13.005C8.38802 13.22 8.38802 13.413 8.37502 13.568C8.36102 13.721 8.32902 13.927 8.19802 14.105C8.11523 14.2191 8.00834 14.3135 7.88494 14.3816C7.76154 14.4497 7.62466 14.4898 7.48402 14.499C7.25702 14.513 7.06502 14.422 6.93202 14.347C6.79902 14.272 6.64202 14.164 6.47102 14.046L5.48702 13.366L5.44502 13.337C5.24502 13.2 5.06502 13.077 4.93102 12.907C4.81354 12.7583 4.72532 12.5886 4.67102 12.407C4.61102 12.199 4.61102 11.98 4.61102 11.731V8.77C4.61102 8.358 4.61002 8.217 4.58402 8.088C4.55934 7.96375 4.51902 7.84312 4.46402 7.729C4.40802 7.612 4.32702 7.502 4.08102 7.178L1.52302 3.808L1.51702 3.798L1.49002 3.764C1.24708 3.4558 1.01722 3.13752 0.801021 2.81C0.640021 2.553 0.498021 2.268 0.500021 1.952C0.502021 1.516 0.695021 1.1 1.03302 0.822C1.28002 0.619 1.59302 0.557 1.89102 0.529C2.19002 0.5 2.57602 0.5 3.04202 0.5ZM2.92502 4L4.87702 6.572L4.90502 6.609C5.11302 6.883 5.25902 7.074 5.36402 7.291C5.45735 7.483 5.52469 7.68433 5.56602 7.895C5.61202 8.131 5.61202 8.374 5.61202 8.723V11.679C5.61202 12.009 5.61602 12.074 5.63202 12.125C5.64935 12.185 5.67669 12.2383 5.71402 12.285C5.74402 12.323 5.78902 12.36 6.05502 12.544L7.02102 13.21C7.18802 13.325 7.29802 13.4 7.38102 13.451C7.38802 13.348 7.38802 13.205 7.38802 12.984V8.723C7.38802 8.373 7.38802 8.131 7.43402 7.895C7.47602 7.68433 7.54335 7.483 7.63602 7.291C7.74102 7.074 7.88702 6.883 8.09602 6.608L8.12302 6.572L10.075 4H2.92502ZM10.833 3C11.069 2.689 11.236 2.462 11.351 2.279C11.491 2.055 11.501 1.974 11.5 1.956C11.5003 1.88703 11.4854 1.81884 11.4564 1.75628C11.4273 1.69372 11.3849 1.63832 11.332 1.594C11.327 1.59 11.27 1.548 11.016 1.524C10.769 1.5 10.43 1.5 9.93202 1.5H3.06802C2.56902 1.5 2.23102 1.5 1.98402 1.524C1.73002 1.548 1.67302 1.59 1.66802 1.594C1.61517 1.63832 1.57273 1.69372 1.54369 1.75628C1.51466 1.81884 1.49975 1.88703 1.50002 1.956C1.50002 1.974 1.50902 2.056 1.64902 2.279C1.76402 2.462 1.93102 2.689 2.16702 3H10.833ZM12.5 6C12.5 5.86739 12.5527 5.74021 12.6465 5.64645C12.7402 5.55268 12.8674 5.5 13 5.5H16C16.1326 5.5 16.2598 5.55268 16.3536 5.64645C16.4473 5.74021 16.5 5.86739 16.5 6C16.5 6.13261 16.4473 6.25979 16.3536 6.35355C16.2598 6.44732 16.1326 6.5 16 6.5H13C12.8674 6.5 12.7402 6.44732 12.6465 6.35355C12.5527 6.25979 12.5 6.13261 12.5 6ZM11 8.5C11 8.36739 11.0527 8.24021 11.1465 8.14645C11.2402 8.05268 11.3674 8 11.5 8H16C16.1326 8 16.2598 8.05268 16.3536 8.14645C16.4473 8.24021 16.5 8.36739 16.5 8.5C16.5 8.63261 16.4473 8.75979 16.3536 8.85355C16.2598 8.94732 16.1326 9 16 9H11.5C11.3674 9 11.2402 8.94732 11.1465 8.85355C11.0527 8.75979 11 8.63261 11 8.5ZM10.5 11C10.5 10.8674 10.5527 10.7402 10.6465 10.6464C10.7402 10.5527 10.8674 10.5 11 10.5H16C16.1326 10.5 16.2598 10.5527 16.3536 10.6464C16.4473 10.7402 16.5 10.8674 16.5 11C16.5 11.1326 16.4473 11.2598 16.3536 11.3536C16.2598 11.4473 16.1326 11.5 16 11.5H11C10.8674 11.5 10.7402 11.4473 10.6465 11.3536C10.5527 11.2598 10.5 11.1326 10.5 11ZM10.5 13.5C10.5 13.3674 10.5527 13.2402 10.6465 13.1464C10.7402 13.0527 10.8674 13 11 13H13.5C13.6326 13 13.7598 13.0527 13.8536 13.1464C13.9473 13.2402 14 13.3674 14 13.5C14 13.6326 13.9473 13.7598 13.8536 13.8536C13.7598 13.9473 13.6326 14 13.5 14H11C10.8674 14 10.7402 13.9473 10.6465 13.8536C10.5527 13.7598 10.5 13.6326 10.5 13.5Z" fill="#1D4ED8"/>
</svg>
