<svg width="15" height="15" viewBox="0 0 15 15" fill="none" xmlns="http://www.w3.org/2000/svg">
<path d="M7.5 2.13417L1.66667 6.80083V13.3333H5.83333V10H9.16667V13.3333H13.3333V7.20167C13.3334 7.07669 13.3053 6.95331 13.2512 6.84065C13.1971 6.72799 13.1184 6.62894 13.0208 6.55083L7.5 2.13417ZM7.5 0L14.0617 5.25C14.3543 5.48407 14.5905 5.78091 14.7529 6.11859C14.9154 6.45626 14.9998 6.82613 15 7.20083V13.3333C15 13.7754 14.8244 14.1993 14.5118 14.5118C14.1993 14.8244 13.7754 15 13.3333 15H1.66667C1.22464 15 0.800716 14.8244 0.488155 14.5118C0.175595 14.1993 0 13.7754 0 13.3333V6.80083C3.11647e-05 6.55103 0.0562156 6.30442 0.164399 6.07926C0.272582 5.85409 0.429996 5.65613 0.625 5.5L7.5 0Z" fill="#1D4ED8"/>
</svg>
