<svg width="25" height="24" viewBox="0 0 25 24" fill="none" xmlns="http://www.w3.org/2000/svg">
<path d="M16.2324 20.8125H18.3887C19.0849 20.8125 19.7525 20.5359 20.2448 20.0437C20.7371 19.5514 21.0137 18.8837 21.0137 18.1875V16.0312M21.0137 7.96875V5.8125C21.0137 5.11631 20.7371 4.44863 20.2448 3.95634C19.7525 3.46406 19.0849 3.1875 18.3887 3.1875H16.2324M8.16992 20.8125H6.01367C5.31748 20.8125 4.6498 20.5359 4.15752 20.0437C3.66523 19.5514 3.38867 18.8837 3.38867 18.1875V16.0312M3.38867 7.96875V5.8125C3.38867 5.11631 3.66523 4.44863 4.15752 3.95634C4.6498 3.46406 5.31748 3.1875 6.01367 3.1875H8.16992" stroke="#1D4ED8" stroke-width="1.375" stroke-linecap="round" stroke-linejoin="round"/>
</svg>
