<svg width="14" height="14" viewBox="0 0 14 14" fill="none" xmlns="http://www.w3.org/2000/svg">
<path d="M8.48134 5.89459H11.7089C13.1941 5.89459 11.2633 12.25 10.1993 12.25H2.89534C2.74754 12.2513 2.60529 12.1938 2.49984 12.0902C2.3944 11.9866 2.33439 11.8454 2.33301 11.6976V6.22301C2.33301 6.02059 2.44559 5.83451 2.62584 5.73768C3.82867 5.09251 5.23976 4.56401 5.93801 3.32909L6.68467 2.00726C6.72919 1.92872 6.79385 1.86348 6.87198 1.81826C6.95012 1.77304 7.0389 1.74948 7.12917 1.75001C8.98417 1.75001 8.43409 4.45084 8.18209 5.52418C8.17195 5.56887 8.17207 5.61527 8.18244 5.65991C8.19281 5.70455 8.21316 5.74625 8.24195 5.7819C8.27075 5.81755 8.30725 5.8462 8.34871 5.86572C8.39017 5.88524 8.43552 5.89511 8.48134 5.89459Z" stroke="#2A2A2A" stroke-opacity="0.7"/>
</svg>
