<svg width="35" height="35" viewBox="0 0 35 35" fill="none" xmlns="http://www.w3.org/2000/svg">
<circle cx="17.4355" cy="17.1177" r="17" fill="white"/>
<circle cx="17.4355" cy="17.1177" r="16.422" stroke="#1D4ED8" stroke-opacity="0.25" stroke-width="1.156"/>
<path fill-rule="evenodd" clip-rule="evenodd" d="M17.4352 8.61768C19.4641 8.61768 21.4099 9.42366 22.8445 10.8583C24.2792 12.293 25.0852 14.2388 25.0852 16.2677C25.0852 18.8806 23.6606 21.0192 22.1595 22.5534C21.4095 23.3117 20.5911 23.9991 19.7149 24.607L19.3528 24.8535L19.1828 24.9666L18.8623 25.1706L18.5767 25.3448L18.2231 25.5505C17.9831 25.6875 17.7115 25.7596 17.4352 25.7596C17.1588 25.7596 16.8872 25.6875 16.6472 25.5505L16.2936 25.3448L15.8516 25.0728L15.6884 24.9666L15.3399 24.7345C14.3946 24.0949 13.514 23.3644 12.7109 22.5534C11.2098 21.0183 9.78516 18.8806 9.78516 16.2677C9.78516 14.2388 10.5911 12.293 12.0258 10.8583C13.4604 9.42366 15.4063 8.61768 17.4352 8.61768ZM17.4352 10.3177C15.8571 10.3177 14.3437 10.9445 13.2279 12.0604C12.112 13.1762 11.4852 14.6896 11.4852 16.2677C11.4852 18.2414 12.5664 19.9737 13.9255 21.3643C14.5099 21.9559 15.1416 22.4988 15.8142 22.9878L16.2035 23.2649C16.3293 23.3527 16.4503 23.4343 16.5665 23.5097L16.898 23.7222L17.1895 23.8998L17.4352 24.0435L17.8219 23.8148L18.1339 23.6193C18.2999 23.5139 18.4775 23.3958 18.6668 23.2649L19.0561 22.9878C19.7287 22.4988 20.3604 21.9559 20.9448 21.3643C22.304 19.9745 23.3852 18.2414 23.3852 16.2677C23.3852 14.6896 22.7583 13.1762 21.6424 12.0604C20.5266 10.9445 19.0132 10.3177 17.4352 10.3177ZM17.4352 12.8677C18.3369 12.8677 19.2017 13.2259 19.8393 13.8635C20.4769 14.5011 20.8352 15.3659 20.8352 16.2677C20.8352 17.1694 20.4769 18.0342 19.8393 18.6718C19.2017 19.3095 18.3369 19.6677 17.4352 19.6677C16.5334 19.6677 15.6686 19.3095 15.031 18.6718C14.3934 18.0342 14.0352 17.1694 14.0352 16.2677C14.0352 15.3659 14.3934 14.5011 15.031 13.8635C15.6686 13.2259 16.5334 12.8677 17.4352 12.8677ZM17.4352 14.5677C16.9843 14.5677 16.5519 14.7468 16.2331 15.0656C15.9143 15.3844 15.7352 15.8168 15.7352 16.2677C15.7352 16.7185 15.9143 17.1509 16.2331 17.4698C16.5519 17.7886 16.9843 17.9677 17.4352 17.9677C17.886 17.9677 18.3184 17.7886 18.6372 17.4698C18.956 17.1509 19.1352 16.7185 19.1352 16.2677C19.1352 15.8168 18.956 15.3844 18.6372 15.0656C18.3184 14.7468 17.886 14.5677 17.4352 14.5677Z" fill="#1D4ED8"/>
</svg>
