<svg width="29" height="22" viewBox="0 0 29 22" fill="none" xmlns="http://www.w3.org/2000/svg">
<g clip-path="url(#clip0_431_955)">
<path d="M5.27169 21.8906V20.4345C5.27169 19.8762 4.92346 19.5123 4.32658 19.5123C4.0282 19.5123 3.70489 19.6093 3.48105 19.9248C3.30705 19.6579 3.0584 19.5123 2.68536 19.5123C2.4366 19.5123 2.18806 19.585 1.98902 19.852V19.5608H1.4668V21.8906H1.98902V20.6043C1.98902 20.1918 2.21287 19.9976 2.56109 19.9976C2.90909 19.9976 3.08332 20.216 3.08332 20.6043V21.8906H3.60555V20.6043C3.60555 20.1918 3.85409 19.9976 4.17739 19.9976C4.52562 19.9976 4.69962 20.216 4.69962 20.6043V21.8906H5.27169ZM13.0055 19.5608H12.1601V18.857H11.6379V19.5608H11.1654V20.0218H11.6378V21.0897C11.6378 21.6237 11.8616 21.9391 12.4585 21.9391C12.6823 21.9391 12.9309 21.8664 13.1051 21.7693L12.9558 21.3324C12.8066 21.4295 12.6326 21.4538 12.5082 21.4538C12.2596 21.4538 12.1601 21.3082 12.1601 21.0654V20.0218H13.0055V19.5608ZM17.4321 19.5121C17.1337 19.5121 16.9348 19.6579 16.8104 19.852V19.5608H16.2882V21.8906H16.8104V20.5801C16.8104 20.1918 16.9844 19.9734 17.3077 19.9734C17.4072 19.9734 17.5316 19.9977 17.631 20.0219L17.7802 19.5366C17.6807 19.5123 17.5316 19.5123 17.4321 19.5123M10.7426 19.755C10.4938 19.5851 10.1457 19.5124 9.77269 19.5124C9.17593 19.5124 8.77808 19.8036 8.77808 20.2647C8.77808 20.6531 9.07647 20.8714 9.59869 20.9443L9.84734 20.9686C10.1209 21.017 10.2701 21.0898 10.2701 21.2112C10.2701 21.381 10.0712 21.5024 9.72296 21.5024C9.37473 21.5024 9.10127 21.381 8.92716 21.2598L8.67851 21.648C8.95208 21.8422 9.32512 21.9392 9.69804 21.9392C10.3944 21.9392 10.7923 21.6238 10.7923 21.1869C10.7923 20.7743 10.469 20.5559 9.97161 20.4831L9.72296 20.4588C9.49912 20.4345 9.32512 20.3861 9.32512 20.2405C9.32512 20.0706 9.49912 19.9735 9.77269 19.9735C10.0712 19.9735 10.3696 20.0948 10.5188 20.1676L10.7426 19.755ZM24.619 19.5124C24.3205 19.5124 24.1216 19.658 23.9972 19.8521V19.5609H23.475V21.8907H23.9972V20.5802C23.9972 20.1919 24.1713 19.9735 24.4945 19.9735C24.5941 19.9735 24.7185 19.9978 24.8179 20.022L24.9671 19.5367C24.8676 19.5124 24.7185 19.5124 24.619 19.5124ZM17.9543 20.7258C17.9543 21.4296 18.4516 21.9392 19.2226 21.9392C19.5707 21.9392 19.8194 21.8665 20.068 21.6724L19.8194 21.2598C19.6205 21.4054 19.4215 21.4781 19.1977 21.4781C18.7749 21.4781 18.4765 21.1869 18.4765 20.7258C18.4765 20.289 18.7749 19.9977 19.1977 19.9735C19.4215 19.9735 19.6205 20.0462 19.8194 20.1919L20.068 19.7794C19.8194 19.5851 19.5707 19.5124 19.2226 19.5124C18.4516 19.5124 17.9543 20.022 17.9543 20.7258ZM22.7787 20.7258V19.5609H22.2565V19.8521C22.0824 19.6338 21.8337 19.5124 21.5104 19.5124C20.839 19.5124 20.3168 20.022 20.3168 20.7258C20.3168 21.4296 20.839 21.9392 21.5104 21.9392C21.8586 21.9392 22.1073 21.8179 22.2565 21.5995V21.8907H22.7787V20.7258ZM20.8638 20.7258C20.8638 20.3132 21.1374 19.9735 21.585 19.9735C22.0077 19.9735 22.3062 20.289 22.3062 20.7258C22.3062 21.1384 22.0077 21.4781 21.585 21.4781C21.1374 21.4538 20.8638 21.1384 20.8638 20.7258ZM14.622 19.5124C13.9257 19.5124 13.4283 19.9977 13.4283 20.7258C13.4283 21.4539 13.9256 21.9392 14.6468 21.9392C14.995 21.9392 15.3432 21.8422 15.6168 21.6238L15.368 21.2598C15.1691 21.4054 14.9204 21.5024 14.6718 21.5024C14.3485 21.5024 14.0252 21.3568 13.9505 20.9441H15.7162V20.7501C15.7411 19.9977 15.2936 19.5124 14.622 19.5124ZM14.6219 19.9492C14.9451 19.9492 15.1691 20.1434 15.2187 20.5075H13.9753C14.025 20.1919 14.2489 19.9492 14.6219 19.9492ZM27.5781 20.7258V18.6387H27.0559V19.8521C26.8818 19.6338 26.6331 19.5124 26.3098 19.5124C25.6384 19.5124 25.1162 20.022 25.1162 20.7258C25.1162 21.4296 25.6384 21.9392 26.3098 21.9392C26.6581 21.9392 26.9067 21.8179 27.0559 21.5995V21.8907H27.5781V20.7258ZM25.6633 20.7258C25.6633 20.3132 25.9368 19.9735 26.3845 19.9735C26.8072 19.9735 27.1056 20.289 27.1056 20.7258C27.1056 21.1384 26.8072 21.4781 26.3845 21.4781C25.9368 21.4538 25.6633 21.1384 25.6633 20.7258ZM8.2059 20.7258V19.5609H7.68367V19.8521C7.50956 19.6338 7.26091 19.5124 6.9376 19.5124C6.26618 19.5124 5.74396 20.022 5.74396 20.7258C5.74396 21.4296 6.26618 21.9392 6.9376 21.9392C7.28583 21.9392 7.53448 21.8179 7.68367 21.5995V21.8907H8.2059V20.7258ZM6.26618 20.7258C6.26618 20.3132 6.53976 19.9735 6.98733 19.9735C7.4101 19.9735 7.70859 20.289 7.70859 20.7258C7.70859 21.1384 7.4101 21.4781 6.98733 21.4781C6.53976 21.4538 6.26618 21.1384 6.26618 20.7258Z" fill="black"/>
<path d="M10.5693 1.86865H18.4027V15.6049H10.5693V1.86865Z" fill="#FF5F00"/>
<path d="M11.0663 8.73687C11.0663 5.94597 12.4092 3.47047 14.4732 1.86867C12.9563 0.703779 11.0415 0 8.95262 0C4.0037 0 0 3.90727 0 8.73687C0 13.5665 4.0037 17.4737 8.9525 17.4737C11.0414 17.4737 12.9562 16.77 14.4732 15.605C12.4092 14.0275 11.0663 11.5278 11.0663 8.73687Z" fill="#EB001B"/>
<path d="M28.9712 8.73687C28.9712 13.5664 24.9675 17.4737 20.0187 17.4737C17.9298 17.4737 16.015 16.77 14.498 15.605C16.587 14.0033 17.905 11.5278 17.905 8.73687C17.905 5.94597 16.562 3.47047 14.498 1.86867C16.0149 0.703779 17.9298 0 20.0187 0C24.9675 0 28.9712 3.93159 28.9712 8.73687Z" fill="#F79E1B"/>
</g>
<defs>
<clipPath id="clip0_431_955">
<rect width="29" height="22" fill="white"/>
</clipPath>
</defs>
</svg>
