<svg width="21" height="21" viewBox="0 0 21 21" fill="none" xmlns="http://www.w3.org/2000/svg">
<path d="M18.4419 12.5581L16.75 10.8663V8.625C16.7481 7.07615 16.1719 5.58303 15.1329 4.43436C14.0939 3.2857 12.6659 2.56308 11.125 2.40625V1.125H9.875V2.40625C8.33411 2.56308 6.9061 3.2857 5.86711 4.43436C4.82811 5.58303 4.25194 7.07615 4.25 8.625V10.8663L2.55812 12.5581C2.44091 12.6753 2.37504 12.8343 2.375 13V14.875C2.375 15.0408 2.44085 15.1997 2.55806 15.3169C2.67527 15.4342 2.83424 15.5 3 15.5H7.375V15.9856C7.3614 16.7785 7.64088 17.5486 8.15986 18.1482C8.67885 18.7478 9.40085 19.1348 10.1875 19.235C10.622 19.2781 11.0607 19.2298 11.4754 19.0931C11.8901 18.9565 12.2716 18.7346 12.5953 18.4416C12.9191 18.1487 13.178 17.7913 13.3553 17.3923C13.5326 16.9933 13.6245 16.5616 13.625 16.125V15.5H18C18.1658 15.5 18.3247 15.4342 18.4419 15.3169C18.5592 15.1997 18.625 15.0408 18.625 14.875V13C18.625 12.8343 18.5591 12.6753 18.4419 12.5581ZM12.375 16.125C12.375 16.6223 12.1775 17.0992 11.8258 17.4508C11.4742 17.8025 10.9973 18 10.5 18C10.0027 18 9.52581 17.8025 9.17417 17.4508C8.82254 17.0992 8.625 16.6223 8.625 16.125V15.5H12.375V16.125ZM17.375 14.25H3.625V13.2588L5.31687 11.5669C5.43409 11.4497 5.49996 11.2907 5.5 11.125V8.625C5.5 7.29892 6.02678 6.02715 6.96447 5.08947C7.90215 4.15178 9.17392 3.625 10.5 3.625C11.8261 3.625 13.0979 4.15178 14.0355 5.08947C14.9732 6.02715 15.5 7.29892 15.5 8.625V11.125C15.5 11.2907 15.5659 11.4497 15.6831 11.5669L17.375 13.2588V14.25Z" fill="#A4A4A4"/>
</svg>
