<svg width="21" height="25" viewBox="0 0 21 25" fill="none" xmlns="http://www.w3.org/2000/svg">
<g clip-path="url(#clip0_431_900)">
<path d="M17.8146 1.94578C16.6716 0.631042 14.6054 0.0673828 11.9621 0.0673828H4.29054C4.029 0.0673421 3.77603 0.161482 3.57713 0.332867C3.37823 0.504253 3.24646 0.741636 3.20552 1.00232L0.0112189 21.4466C-0.0522732 21.8497 0.257067 22.2148 0.661973 22.2148H5.39813L6.58758 14.6013L6.55067 14.8397C6.63541 14.3016 7.0915 13.9046 7.63159 13.9046H9.8822C14.3035 13.9046 17.7655 12.0924 18.7768 6.84992C18.8068 6.69487 18.8328 6.54396 18.8553 6.39652C18.7276 6.32831 18.7276 6.32831 18.8553 6.39652C19.1564 4.45886 18.8532 3.1399 17.8146 1.94578Z" fill="#27346A"/>
<path d="M8.39982 5.69851C8.52926 5.63619 8.6709 5.60395 8.81432 5.60414H14.8287C15.5409 5.60414 16.2052 5.65091 16.8122 5.7495C16.9821 5.77685 17.151 5.80949 17.3189 5.84735C17.5568 5.90034 17.792 5.96518 18.0236 6.04164C18.322 6.14222 18.5999 6.25935 18.8554 6.39652C19.1564 4.45811 18.8532 3.1399 17.8146 1.94578C16.6709 0.631042 14.6054 0.0673828 11.9621 0.0673828H4.28989C3.74971 0.0673828 3.29017 0.464237 3.20552 1.00232L0.0112194 21.4459C-0.0522728 21.8497 0.257067 22.2142 0.661317 22.2142H5.39813L7.86588 6.42202C7.89016 6.2668 7.95144 6.11986 8.04445 5.99383C8.13746 5.8678 8.25941 5.76645 8.39982 5.69851Z" fill="#27346A"/>
<path d="M18.7765 6.84988C17.7652 12.0916 14.3033 13.9046 9.88189 13.9046H7.63062C7.09053 13.9046 6.63435 14.3015 6.55043 14.8397L5.07067 24.3062C5.01538 24.659 5.28576 24.9787 5.63948 24.9787H9.63194C9.86064 24.9786 10.0818 24.8962 10.2557 24.7463C10.4296 24.5964 10.5447 24.3888 10.5805 24.1608L10.6193 23.9555L11.3718 19.1429L11.4203 18.8769C11.456 18.649 11.5712 18.4414 11.745 18.2915C11.9189 18.1416 12.1401 18.0591 12.3687 18.0591H12.9663C16.8338 18.0591 19.8621 16.4735 20.7471 11.8877C21.1165 9.97132 20.9253 8.37132 19.9482 7.24748C19.6518 6.90708 19.2837 6.62595 18.855 6.39648C18.8317 6.54466 18.8066 6.69483 18.7765 6.84988Z" fill="#2790C3"/>
<path d="M17.7964 5.97064C17.6387 5.92418 17.4795 5.88305 17.3191 5.8473C17.1512 5.81004 16.9822 5.77763 16.8124 5.75011C16.2047 5.65086 15.5409 5.60401 14.8281 5.60401H8.81443C8.67093 5.60376 8.52922 5.63628 8.39993 5.69912C8.25934 5.76682 8.13723 5.8681 8.04417 5.99417C7.95112 6.12024 7.88993 6.26731 7.86591 6.42263L6.5877 14.6013L6.55078 14.8397C6.63486 14.3015 7.09096 13.9046 7.63113 13.9046H9.8824C14.3037 13.9046 17.7656 12.0923 18.7769 6.84987C18.807 6.69482 18.8323 6.54457 18.8555 6.39647C18.5994 6.26016 18.3222 6.14208 18.0237 6.04225C17.9483 6.01705 17.8726 5.99317 17.7964 5.97064" fill="#1F264F"/>
</g>
<defs>
<clipPath id="clip0_431_900">
<rect width="21" height="25" fill="white"/>
</clipPath>
</defs>
</svg>
