<svg width="23" height="23" viewBox="0 0 23 23" fill="none" xmlns="http://www.w3.org/2000/svg">
<path d="M18.2083 19.8853C18.4624 19.8853 18.7062 19.7844 18.8859 19.6046C19.0656 19.4249 19.1666 19.1812 19.1666 18.927V17.7329C19.1704 15.0438 15.3582 12.9374 11.4999 12.9374C7.64167 12.9374 3.83325 15.0438 3.83325 17.7329V18.927C3.83325 19.1812 3.93422 19.4249 4.11394 19.6046C4.29366 19.7844 4.53742 19.8853 4.79159 19.8853H18.2083ZM14.9538 6.56834C14.9538 7.0219 14.8644 7.47102 14.6908 7.89006C14.5173 8.3091 14.2629 8.68985 13.9421 9.01056C13.6214 9.33128 13.2407 9.58569 12.8216 9.75926C12.4026 9.93283 11.9535 10.0222 11.4999 10.0222C11.0464 10.0222 10.5972 9.93283 10.1782 9.75926C9.75916 9.58569 9.37841 9.33128 9.05769 9.01056C8.73697 8.68985 8.48256 8.3091 8.30899 7.89006C8.13542 7.47102 8.04609 7.0219 8.04609 6.56834C8.04609 5.65232 8.40997 4.77383 9.05769 4.12611C9.70541 3.47839 10.5839 3.1145 11.4999 3.1145C12.4159 3.1145 13.2944 3.47839 13.9421 4.12611C14.5899 4.77383 14.9538 5.65232 14.9538 6.56834Z" stroke="#6B7280" stroke-width="1.6" stroke-linecap="round" stroke-linejoin="round"/>
</svg>
