<svg width="12" height="12" viewBox="0 0 12 12" fill="none" xmlns="http://www.w3.org/2000/svg">
<path d="M6.08362 0.96009C5.98187 0.748897 5.76683 0.614502 5.53068 0.614502C5.29453 0.614502 5.08142 0.748897 4.97774 0.96009L3.74322 3.50016L0.986197 3.90719C0.755804 3.94175 0.563811 4.10302 0.492773 4.32382C0.421736 4.54461 0.479334 4.78844 0.644448 4.95163L2.64502 6.93109L2.17272 9.72843C2.13432 9.95882 2.23031 10.1931 2.42039 10.3294C2.61046 10.4657 2.86197 10.483 3.06933 10.3735L5.5326 9.05837L7.99588 10.3735C8.20323 10.483 8.45474 10.4676 8.64482 10.3294C8.83489 10.1911 8.93089 9.95882 8.89249 9.72843L8.41826 6.93109L10.4188 4.95163C10.584 4.78844 10.6435 4.54461 10.5705 4.32382C10.4976 4.10302 10.3075 3.94175 10.0771 3.90719L7.31814 3.50016L6.08362 0.96009Z" fill="#FDC62F"/>
</svg>
