<svg width="20" height="20" viewBox="0 0 20 20" fill="none" xmlns="http://www.w3.org/2000/svg">
<path d="M14.2324 18.8125H16.3887C17.0849 18.8125 17.7525 18.5359 18.2448 18.0437C18.7371 17.5514 19.0137 16.8837 19.0137 16.1875V14.0312M19.0137 5.96875V3.8125C19.0137 3.11631 18.7371 2.44863 18.2448 1.95634C17.7525 1.46406 17.0849 1.1875 16.3887 1.1875H14.2324M6.16992 18.8125H4.01367C3.31748 18.8125 2.6498 18.5359 2.15752 18.0437C1.66523 17.5514 1.38867 16.8837 1.38867 16.1875V14.0312M1.38867 5.96875V3.8125C1.38867 3.11631 1.66523 2.44863 2.15752 1.95634C2.6498 1.46406 3.31748 1.1875 4.01367 1.1875H6.16992" stroke="#1D4ED8" stroke-width="1.375" stroke-linecap="round" stroke-linejoin="round"/>
</svg>
