<svg width="21" height="21" viewBox="0 0 21 21" fill="none" xmlns="http://www.w3.org/2000/svg">
<path d="M1.07324 1.58258C1.07314 1.56464 1.07748 1.54707 1.08594 1.5318C1.09447 1.51643 1.10696 1.50423 1.12109 1.49567C1.1352 1.48712 1.15107 1.48235 1.16699 1.48199C1.18284 1.48168 1.19856 1.48588 1.21289 1.49371L1.2168 1.49567L19.8701 11.4791L19.875 11.482C19.8905 11.4902 19.9036 11.503 19.9131 11.5191C19.9226 11.5354 19.9282 11.5543 19.9277 11.5738C19.9273 11.5932 19.9213 11.6118 19.9111 11.6275C19.9009 11.6432 19.8861 11.6553 19.8701 11.6627L19.8672 11.6646L1.21289 20.4732L1.20898 20.4752C1.19465 20.4821 1.17859 20.4849 1.16309 20.4839C1.14767 20.483 1.13265 20.478 1.11914 20.4693C1.10555 20.4606 1.09408 20.4482 1.08594 20.4332C1.07782 20.4181 1.0731 20.401 1.07324 20.3834V13.4537C1.07325 13.4275 1.0829 13.4026 1.09961 13.3843C1.1163 13.3661 1.13918 13.3559 1.16211 13.3541H1.16406L16.0586 12.105L16.0791 11.1109L1.16016 9.23102H1.1582C1.13608 9.22832 1.11449 9.21772 1.09863 9.19977C1.0827 9.18153 1.07312 9.15696 1.07324 9.13141V1.58258Z" fill="#1D4ED8" stroke="#1D4ED8"/>
</svg>
