<svg width="11" height="10" viewBox="0 0 11 10" fill="none" xmlns="http://www.w3.org/2000/svg">
<path d="M2.23632 0.441895H6.73977C7.04321 0.441895 7.29456 0.441894 7.48925 0.460127C7.68265 0.47836 7.88712 0.518732 8.04795 0.651569C8.26805 0.831941 8.39307 1.10282 8.39502 1.38673C8.39632 1.5925 8.30386 1.77743 8.19902 1.94543C8.09288 2.11473 7.93856 2.31855 7.74972 2.56664L6.06321 4.78971C5.90302 5.00069 5.85028 5.07231 5.81381 5.1485C5.778 5.22281 5.75174 5.30136 5.73567 5.38227C5.71874 5.46692 5.71744 5.55808 5.71744 5.82636V8.58468C5.71744 8.72468 5.71744 8.85036 5.70898 8.95129C5.69986 9.05092 5.67902 9.18506 5.59372 9.30096C5.53981 9.37524 5.4702 9.43672 5.38985 9.48106C5.3095 9.5254 5.22037 9.55151 5.12879 9.55752C4.98098 9.56664 4.85595 9.50738 4.76935 9.45855C4.68274 9.40971 4.58051 9.33938 4.46916 9.26255L3.82842 8.81975L3.80107 8.80087C3.67084 8.71166 3.55363 8.63157 3.46637 8.52087C3.38987 8.42402 3.33243 8.31354 3.29707 8.19529C3.258 8.05985 3.258 7.91724 3.258 7.7551V5.82701C3.258 5.55873 3.25735 5.46692 3.24042 5.38292C3.22435 5.30201 3.19809 5.22346 3.16228 5.14915C3.12581 5.07296 3.07307 5.00134 2.91288 4.79036L1.24721 2.59594L1.2433 2.58943L1.22572 2.56729C1.06753 2.3666 0.917846 2.15935 0.777068 1.94608C0.672231 1.77873 0.579766 1.59315 0.581068 1.38738C0.582371 1.10348 0.708045 0.832592 0.928138 0.651569C1.08898 0.519383 1.29279 0.479011 1.48684 0.460778C1.68153 0.441894 1.93288 0.441895 2.23632 0.441895ZM2.16014 2.72096L3.43121 4.39575L3.44944 4.41985C3.58488 4.59827 3.67995 4.72264 3.74832 4.86394C3.8091 4.98896 3.85294 5.12007 3.87986 5.25724C3.90981 5.41092 3.90981 5.56915 3.90981 5.79641V7.72124C3.90981 7.93613 3.91242 7.97845 3.92284 8.01166C3.93412 8.05073 3.95192 8.08546 3.97623 8.11585C3.99577 8.14059 4.02507 8.16469 4.19828 8.2845L4.8273 8.71817C4.93605 8.79306 5.00767 8.8419 5.06172 8.8751C5.06628 8.80803 5.06628 8.71492 5.06628 8.57101V5.79641C5.06628 5.5685 5.06628 5.41092 5.09623 5.25724C5.12358 5.12007 5.16742 4.98896 5.22777 4.86394C5.29614 4.72264 5.39121 4.59827 5.5273 4.4192L5.54488 4.39575L6.81595 2.72096H2.16014ZM7.30953 2.0698C7.46321 1.86729 7.57195 1.71948 7.64684 1.60031C7.738 1.45445 7.74451 1.40171 7.74386 1.38999C7.74404 1.34508 7.73433 1.30068 7.71542 1.25994C7.69652 1.2192 7.66888 1.18312 7.63446 1.15427C7.63121 1.15166 7.59409 1.12431 7.4287 1.10869C7.26786 1.09306 7.04711 1.09306 6.72284 1.09306H2.25325C1.92832 1.09306 1.70823 1.09306 1.54739 1.10869C1.382 1.12431 1.34488 1.15166 1.34163 1.15427C1.30721 1.18312 1.27957 1.2192 1.26067 1.25994C1.24176 1.30068 1.23205 1.34508 1.23223 1.38999C1.23223 1.40171 1.23809 1.4551 1.32925 1.60031C1.40414 1.71948 1.51288 1.86729 1.66656 2.0698H7.30953ZM8.39502 4.02329C8.39502 3.93694 8.42932 3.85413 8.49038 3.79307C8.55144 3.73201 8.63425 3.69771 8.7206 3.69771H10.6741C10.7604 3.69771 10.8433 3.73201 10.9043 3.79307C10.9654 3.85413 10.9997 3.93694 10.9997 4.02329C10.9997 4.10964 10.9654 4.19245 10.9043 4.25351C10.8433 4.31457 10.7604 4.34887 10.6741 4.34887H8.7206C8.63425 4.34887 8.55144 4.31457 8.49038 4.25351C8.42932 4.19245 8.39502 4.10964 8.39502 4.02329ZM7.41828 5.6512C7.41828 5.56485 7.45258 5.48203 7.51364 5.42098C7.5747 5.35992 7.65751 5.32562 7.74386 5.32562H10.6741C10.7604 5.32562 10.8433 5.35992 10.9043 5.42098C10.9654 5.48203 10.9997 5.56485 10.9997 5.6512C10.9997 5.73755 10.9654 5.82036 10.9043 5.88142C10.8433 5.94248 10.7604 5.97678 10.6741 5.97678H7.74386C7.65751 5.97678 7.5747 5.94248 7.51364 5.88142C7.45258 5.82036 7.41828 5.73755 7.41828 5.6512ZM7.0927 7.2791C7.0927 7.19275 7.127 7.10994 7.18806 7.04888C7.24911 6.98782 7.33193 6.95352 7.41828 6.95352H10.6741C10.7604 6.95352 10.8433 6.98782 10.9043 7.04888C10.9654 7.10994 10.9997 7.19275 10.9997 7.2791C10.9997 7.36545 10.9654 7.44827 10.9043 7.50933C10.8433 7.57038 10.7604 7.60469 10.6741 7.60469H7.41828C7.33193 7.60469 7.24911 7.57038 7.18806 7.50933C7.127 7.44827 7.0927 7.36545 7.0927 7.2791ZM7.0927 8.90701C7.0927 8.82066 7.127 8.73785 7.18806 8.67679C7.24911 8.61573 7.33193 8.58143 7.41828 8.58143H9.04618C9.13253 8.58143 9.21535 8.61573 9.27641 8.67679C9.33746 8.73785 9.37177 8.82066 9.37177 8.90701C9.37177 8.99336 9.33746 9.07617 9.27641 9.13723C9.21535 9.19829 9.13253 9.23259 9.04618 9.23259H7.41828C7.33193 9.23259 7.24911 9.19829 7.18806 9.13723C7.127 9.07617 7.0927 8.99336 7.0927 8.90701Z" fill="#1D4ED8"/>
</svg>
