<svg width="14" height="14" viewBox="0 0 14 14" fill="none" xmlns="http://www.w3.org/2000/svg">
<path d="M8.48134 8.10541H11.7089C13.1941 8.10541 11.2633 1.74999 10.1993 1.74999H2.89534C2.74754 1.74875 2.60529 1.80623 2.49984 1.90982C2.3944 2.0134 2.33439 2.15461 2.33301 2.30241V7.77699C2.33301 7.97941 2.44559 8.16549 2.62584 8.26232C3.82867 8.90749 5.23976 9.43599 5.93801 10.6709L6.68467 11.9927C6.72919 12.0713 6.79385 12.1365 6.87198 12.1817C6.95012 12.227 7.0389 12.2505 7.12917 12.25C8.98417 12.25 8.43409 9.54916 8.18209 8.47582C8.17195 8.43113 8.17207 8.38473 8.18244 8.34009C8.19281 8.29545 8.21316 8.25375 8.24195 8.2181C8.27075 8.18245 8.30725 8.1538 8.34871 8.13428C8.39017 8.11476 8.43552 8.10489 8.48134 8.10541Z" stroke="#2A2A2A" stroke-opacity="0.7"/>
</svg>
