<svg width="33" height="33" viewBox="0 0 33 33" fill="none" xmlns="http://www.w3.org/2000/svg">
<path fill-rule="evenodd" clip-rule="evenodd" d="M15.5265 4.5485C14.9848 5.25525 14.3743 6.347 13.486 7.93925L13.0364 8.74638L12.9553 8.89213C12.5428 9.63462 12.1921 10.2644 11.6298 10.6906C11.0619 11.1224 10.3689 11.2777 9.56314 11.4592L9.40639 11.495L8.53189 11.693C6.80626 12.0835 5.63064 12.3516 4.82764 12.6692C4.04251 12.9773 3.87751 13.2316 3.81426 13.4338C3.74689 13.6483 3.74551 13.9769 4.21301 14.7221C4.69014 15.4784 5.49451 16.4216 6.66876 17.7966L7.26551 18.4937L7.36864 18.6134C7.92276 19.2596 8.38476 19.7986 8.59651 20.4806C8.80689 21.1585 8.73676 21.8694 8.65151 22.7329L8.63776 22.8937L8.54701 23.8246C8.36826 25.6561 8.25001 26.9184 8.28989 27.8259C8.33114 28.7334 8.52226 28.9836 8.67489 29.0991C8.80964 29.2022 9.05989 29.315 9.87526 29.0812C10.7044 28.8447 11.8071 28.3401 13.4228 27.5962L14.2423 27.2195L14.3921 27.1508C15.1415 26.8029 15.7905 26.5031 16.5 26.5031C17.2095 26.5031 17.8585 26.8029 18.6079 27.1494C18.6565 27.1732 18.7069 27.1961 18.7591 27.2181L19.5773 27.5962C21.1929 28.3401 22.2956 28.8447 23.1248 29.0812C23.9401 29.315 24.1904 29.2022 24.3251 29.0991C24.4778 28.9836 24.6689 28.732 24.7101 27.8259C24.7514 26.9184 24.6304 25.6561 24.453 23.8246L24.3623 22.8937L24.3485 22.7329C24.2633 21.8694 24.1931 21.1585 24.4035 20.4806C24.6153 19.7986 25.0773 19.2596 25.6314 18.6134L25.7345 18.4937L26.3313 17.7966C27.5055 16.4216 28.3099 15.4784 28.7856 14.7221C29.2545 13.9769 29.2531 13.6496 29.1858 13.4338C29.1225 13.2316 28.9575 12.9773 28.1724 12.6692C27.368 12.3516 26.1938 12.0835 24.4681 11.693L23.5936 11.495L23.4369 11.4592C22.6311 11.2777 21.9381 11.1224 21.3703 10.6906C20.8065 10.2644 20.4586 9.636 20.0448 8.89213L19.965 8.74638L19.514 7.93925C18.6258 6.347 18.0153 5.25525 17.4735 4.5485C16.9318 3.84175 16.6568 3.78125 16.5 3.78125C16.3433 3.78125 16.0669 3.84175 15.5265 4.5485ZM13.8903 3.2945C14.5434 2.43925 15.3533 1.71875 16.5 1.71875C17.6468 1.71875 18.4553 2.43925 19.1111 3.2945C19.7546 4.136 20.438 5.36112 21.2726 6.8585L21.7663 7.74263C22.3053 8.71063 22.4441 8.91687 22.6174 9.04887C22.7824 9.174 22.9983 9.2455 24.0474 9.48337L25.0099 9.70062C26.6269 10.0664 27.9593 10.3675 28.9286 10.7498C29.9351 11.1471 30.8165 11.7315 31.1561 12.8219C31.4916 13.9012 31.1149 14.894 30.5319 15.8194C29.9654 16.72 29.0606 17.7787 27.9551 19.0712L27.302 19.8344C26.5911 20.6649 26.4426 20.8684 26.3725 21.0925C26.3024 21.3221 26.3079 21.5875 26.4165 22.6944L26.5141 23.7091C26.6819 25.4361 26.818 26.8441 26.7699 27.9166C26.7218 29.0097 26.4743 30.0575 25.5736 30.7423C24.6551 31.438 23.5868 31.361 22.5555 31.064C21.5559 30.778 20.3101 30.2046 18.7976 29.5075L17.8956 29.0923C16.9084 28.6385 16.698 28.5656 16.5 28.5656C16.302 28.5656 16.0916 28.6385 15.1044 29.0923L14.2038 29.5075C12.6899 30.2046 11.4441 30.778 10.4445 31.064C9.41326 31.3596 8.34489 31.438 7.42776 30.7423C6.52576 30.0575 6.27826 29.0098 6.23014 27.918C6.18201 26.8455 6.31814 25.4361 6.48589 23.7105L6.58489 22.6944C6.69214 21.5861 6.69764 21.3221 6.62614 21.0925C6.55739 20.8684 6.40889 20.6663 5.69801 19.8344L5.04489 19.0712C3.94076 17.7787 3.03601 16.72 2.46951 15.8207C1.88514 14.894 1.50839 13.9012 1.84389 12.8219C2.18351 11.7315 3.06489 11.1471 4.07139 10.7498C5.04076 10.3675 6.37314 10.0664 7.99014 9.70062L8.07676 9.68138L8.95126 9.48337C10.0018 9.2455 10.2163 9.174 10.3826 9.0475C10.5559 8.91687 10.6948 8.71063 11.2351 7.74263L11.7274 6.8585C12.562 5.35975 13.2454 4.136 13.8889 3.2945" fill="#FDC62F"/>
</svg>
